<mxfile host="app.diagrams.net" modified="2023-05-15T07:41:56.843Z" agent="Mozilla/5.0 (Windows NT 10.0; Win64; x64) AppleWebKit/537.36 (KHTML, like Gecko) Chrome/113.0.0.0 Safari/537.36" etag="pgt0U3rVNEZgFBmaw-IS" version="21.3.0" type="device">
  <diagram name="PÃ¡gina-1" id="fYHYzcIor__WPn7_1F2N">
    <mxGraphModel dx="954" dy="584" grid="1" gridSize="10" guides="1" tooltips="1" connect="1" arrows="1" fold="1" page="1" pageScale="1" pageWidth="827" pageHeight="1169" math="0" shadow="0">
      <root>
        <mxCell id="0" />
        <mxCell id="1" parent="0" />
        <mxCell id="3XYwbMmrLyhnH5qcktHA-24" style="edgeStyle=orthogonalEdgeStyle;rounded=0;orthogonalLoop=1;jettySize=auto;html=1;entryX=1;entryY=0.5;entryDx=0;entryDy=0;" edge="1" parent="1" source="3XYwbMmrLyhnH5qcktHA-15" target="3XYwbMmrLyhnH5qcktHA-16">
          <mxGeometry relative="1" as="geometry">
            <Array as="points">
              <mxPoint x="200" y="100" />
            </Array>
          </mxGeometry>
        </mxCell>
        <mxCell id="3XYwbMmrLyhnH5qcktHA-25" style="edgeStyle=orthogonalEdgeStyle;rounded=0;orthogonalLoop=1;jettySize=auto;html=1;entryX=1;entryY=0.5;entryDx=0;entryDy=0;" edge="1" parent="1" source="3XYwbMmrLyhnH5qcktHA-15" target="3XYwbMmrLyhnH5qcktHA-18">
          <mxGeometry relative="1" as="geometry">
            <Array as="points">
              <mxPoint x="200" y="150" />
            </Array>
          </mxGeometry>
        </mxCell>
        <mxCell id="3XYwbMmrLyhnH5qcktHA-26" style="edgeStyle=orthogonalEdgeStyle;rounded=0;orthogonalLoop=1;jettySize=auto;html=1;entryX=1;entryY=0.5;entryDx=0;entryDy=0;" edge="1" parent="1" source="3XYwbMmrLyhnH5qcktHA-15" target="3XYwbMmrLyhnH5qcktHA-19">
          <mxGeometry relative="1" as="geometry">
            <Array as="points">
              <mxPoint x="200" y="200" />
            </Array>
          </mxGeometry>
        </mxCell>
        <mxCell id="3XYwbMmrLyhnH5qcktHA-29" style="edgeStyle=orthogonalEdgeStyle;rounded=0;orthogonalLoop=1;jettySize=auto;html=1;entryX=1;entryY=0.5;entryDx=0;entryDy=0;" edge="1" parent="1" source="3XYwbMmrLyhnH5qcktHA-15" target="3XYwbMmrLyhnH5qcktHA-20">
          <mxGeometry relative="1" as="geometry" />
        </mxCell>
        <mxCell id="3XYwbMmrLyhnH5qcktHA-30" style="edgeStyle=orthogonalEdgeStyle;rounded=0;orthogonalLoop=1;jettySize=auto;html=1;entryX=1;entryY=0.5;entryDx=0;entryDy=0;" edge="1" parent="1" source="3XYwbMmrLyhnH5qcktHA-15" target="3XYwbMmrLyhnH5qcktHA-21">
          <mxGeometry relative="1" as="geometry">
            <Array as="points">
              <mxPoint x="200" y="300" />
            </Array>
          </mxGeometry>
        </mxCell>
        <mxCell id="3XYwbMmrLyhnH5qcktHA-31" style="edgeStyle=orthogonalEdgeStyle;rounded=0;orthogonalLoop=1;jettySize=auto;html=1;entryX=1;entryY=0.5;entryDx=0;entryDy=0;" edge="1" parent="1" source="3XYwbMmrLyhnH5qcktHA-15" target="3XYwbMmrLyhnH5qcktHA-22">
          <mxGeometry relative="1" as="geometry">
            <Array as="points">
              <mxPoint x="200" y="350" />
            </Array>
          </mxGeometry>
        </mxCell>
        <mxCell id="3XYwbMmrLyhnH5qcktHA-32" style="edgeStyle=orthogonalEdgeStyle;rounded=0;orthogonalLoop=1;jettySize=auto;html=1;entryX=1;entryY=0.5;entryDx=0;entryDy=0;" edge="1" parent="1" source="3XYwbMmrLyhnH5qcktHA-15" target="3XYwbMmrLyhnH5qcktHA-23">
          <mxGeometry relative="1" as="geometry">
            <Array as="points">
              <mxPoint x="200" y="400" />
            </Array>
          </mxGeometry>
        </mxCell>
        <mxCell id="3XYwbMmrLyhnH5qcktHA-73" value="" style="edgeStyle=orthogonalEdgeStyle;rounded=0;orthogonalLoop=1;jettySize=auto;html=1;" edge="1" parent="1" source="3XYwbMmrLyhnH5qcktHA-15" target="3XYwbMmrLyhnH5qcktHA-71">
          <mxGeometry relative="1" as="geometry" />
        </mxCell>
        <mxCell id="3XYwbMmrLyhnH5qcktHA-84" style="edgeStyle=orthogonalEdgeStyle;rounded=0;orthogonalLoop=1;jettySize=auto;html=1;entryX=0.088;entryY=0.5;entryDx=0;entryDy=0;entryPerimeter=0;" edge="1" parent="1" source="3XYwbMmrLyhnH5qcktHA-15" target="3XYwbMmrLyhnH5qcktHA-83">
          <mxGeometry relative="1" as="geometry">
            <Array as="points">
              <mxPoint x="210" y="340" />
            </Array>
          </mxGeometry>
        </mxCell>
        <mxCell id="3XYwbMmrLyhnH5qcktHA-15" value="Usuarios" style="rounded=1;arcSize=10;whiteSpace=wrap;html=1;align=center;" vertex="1" parent="1">
          <mxGeometry x="150" y="230" width="100" height="40" as="geometry" />
        </mxCell>
        <mxCell id="3XYwbMmrLyhnH5qcktHA-16" value="&lt;span style=&quot;border-bottom: 1px dotted&quot;&gt;&lt;b&gt;&lt;u&gt;id&lt;/u&gt;&lt;/b&gt;&lt;/span&gt;" style="ellipse;whiteSpace=wrap;html=1;align=center;" vertex="1" parent="1">
          <mxGeometry x="10" y="80" width="100" height="40" as="geometry" />
        </mxCell>
        <mxCell id="3XYwbMmrLyhnH5qcktHA-18" value="&lt;span style=&quot;border-bottom: 1px dotted&quot;&gt;nombre&lt;/span&gt;" style="ellipse;whiteSpace=wrap;html=1;align=center;" vertex="1" parent="1">
          <mxGeometry x="10" y="130" width="100" height="40" as="geometry" />
        </mxCell>
        <mxCell id="3XYwbMmrLyhnH5qcktHA-19" value="&lt;span style=&quot;border-bottom: 1px dotted&quot;&gt;apellido&lt;/span&gt;" style="ellipse;whiteSpace=wrap;html=1;align=center;" vertex="1" parent="1">
          <mxGeometry x="10" y="180" width="100" height="40" as="geometry" />
        </mxCell>
        <mxCell id="3XYwbMmrLyhnH5qcktHA-20" value="&lt;span style=&quot;border-bottom: 1px dotted&quot;&gt;dni&lt;/span&gt;" style="ellipse;whiteSpace=wrap;html=1;align=center;" vertex="1" parent="1">
          <mxGeometry x="10" y="230" width="100" height="40" as="geometry" />
        </mxCell>
        <mxCell id="3XYwbMmrLyhnH5qcktHA-21" value="&lt;span style=&quot;border-bottom: 1px dotted&quot;&gt;email&lt;/span&gt;" style="ellipse;whiteSpace=wrap;html=1;align=center;" vertex="1" parent="1">
          <mxGeometry x="10" y="280" width="100" height="40" as="geometry" />
        </mxCell>
        <mxCell id="3XYwbMmrLyhnH5qcktHA-22" value="&lt;span style=&quot;border-bottom: 1px dotted&quot;&gt;password&lt;/span&gt;" style="ellipse;whiteSpace=wrap;html=1;align=center;" vertex="1" parent="1">
          <mxGeometry x="10" y="330" width="100" height="40" as="geometry" />
        </mxCell>
        <mxCell id="3XYwbMmrLyhnH5qcktHA-23" value="&lt;span style=&quot;border-bottom: 1px dotted&quot;&gt;tipo_usuario&lt;/span&gt;" style="ellipse;whiteSpace=wrap;html=1;align=center;" vertex="1" parent="1">
          <mxGeometry x="10" y="380" width="100" height="40" as="geometry" />
        </mxCell>
        <mxCell id="3XYwbMmrLyhnH5qcktHA-33" value="Menu" style="rounded=1;arcSize=10;whiteSpace=wrap;html=1;align=center;" vertex="1" parent="1">
          <mxGeometry x="760" y="230" width="100" height="40" as="geometry" />
        </mxCell>
        <mxCell id="3XYwbMmrLyhnH5qcktHA-44" style="edgeStyle=orthogonalEdgeStyle;rounded=0;orthogonalLoop=1;jettySize=auto;html=1;entryX=0.5;entryY=1;entryDx=0;entryDy=0;" edge="1" parent="1" source="3XYwbMmrLyhnH5qcktHA-34" target="3XYwbMmrLyhnH5qcktHA-33">
          <mxGeometry relative="1" as="geometry">
            <Array as="points">
              <mxPoint x="680" y="370" />
              <mxPoint x="810" y="370" />
            </Array>
          </mxGeometry>
        </mxCell>
        <mxCell id="3XYwbMmrLyhnH5qcktHA-48" style="edgeStyle=orthogonalEdgeStyle;rounded=0;orthogonalLoop=1;jettySize=auto;html=1;exitX=0.5;exitY=0;exitDx=0;exitDy=0;" edge="1" parent="1" source="3XYwbMmrLyhnH5qcktHA-35" target="3XYwbMmrLyhnH5qcktHA-33">
          <mxGeometry relative="1" as="geometry">
            <Array as="points">
              <mxPoint x="680" y="450" />
              <mxPoint x="750" y="450" />
              <mxPoint x="750" y="370" />
              <mxPoint x="810" y="370" />
            </Array>
          </mxGeometry>
        </mxCell>
        <mxCell id="3XYwbMmrLyhnH5qcktHA-34" value="&lt;span style=&quot;border-bottom: 1px dotted&quot;&gt;&lt;b&gt;&lt;u&gt;id&lt;/u&gt;&lt;/b&gt;&lt;/span&gt;" style="ellipse;whiteSpace=wrap;html=1;align=center;" vertex="1" parent="1">
          <mxGeometry x="630" y="400" width="100" height="40" as="geometry" />
        </mxCell>
        <mxCell id="3XYwbMmrLyhnH5qcktHA-35" value="&lt;span style=&quot;border-bottom: 1px dotted&quot;&gt;&lt;b&gt;&lt;u&gt;entrante&lt;/u&gt;&lt;/b&gt;&lt;/span&gt;" style="ellipse;whiteSpace=wrap;html=1;align=center;" vertex="1" parent="1">
          <mxGeometry x="630" y="460" width="100" height="40" as="geometry" />
        </mxCell>
        <mxCell id="3XYwbMmrLyhnH5qcktHA-45" style="edgeStyle=orthogonalEdgeStyle;rounded=0;orthogonalLoop=1;jettySize=auto;html=1;entryX=0.5;entryY=1;entryDx=0;entryDy=0;" edge="1" parent="1" source="3XYwbMmrLyhnH5qcktHA-36" target="3XYwbMmrLyhnH5qcktHA-33">
          <mxGeometry relative="1" as="geometry">
            <mxPoint x="810" y="280" as="targetPoint" />
          </mxGeometry>
        </mxCell>
        <mxCell id="3XYwbMmrLyhnH5qcktHA-49" style="edgeStyle=orthogonalEdgeStyle;rounded=0;orthogonalLoop=1;jettySize=auto;html=1;exitX=0.5;exitY=0;exitDx=0;exitDy=0;entryX=0.5;entryY=1;entryDx=0;entryDy=0;" edge="1" parent="1" source="3XYwbMmrLyhnH5qcktHA-38" target="3XYwbMmrLyhnH5qcktHA-33">
          <mxGeometry relative="1" as="geometry">
            <Array as="points">
              <mxPoint x="810" y="450" />
              <mxPoint x="750" y="450" />
              <mxPoint x="750" y="370" />
              <mxPoint x="810" y="370" />
            </Array>
          </mxGeometry>
        </mxCell>
        <mxCell id="3XYwbMmrLyhnH5qcktHA-36" value="&lt;span style=&quot;border-bottom: 1px dotted&quot;&gt;&lt;b&gt;&lt;u&gt;id_admin&lt;/u&gt;&lt;/b&gt;&lt;/span&gt;" style="ellipse;whiteSpace=wrap;html=1;align=center;" vertex="1" parent="1">
          <mxGeometry x="760" y="400" width="100" height="40" as="geometry" />
        </mxCell>
        <mxCell id="3XYwbMmrLyhnH5qcktHA-47" style="edgeStyle=orthogonalEdgeStyle;rounded=0;orthogonalLoop=1;jettySize=auto;html=1;entryX=0.5;entryY=1;entryDx=0;entryDy=0;" edge="1" parent="1" source="3XYwbMmrLyhnH5qcktHA-37" target="3XYwbMmrLyhnH5qcktHA-33">
          <mxGeometry relative="1" as="geometry">
            <Array as="points">
              <mxPoint x="940" y="370" />
              <mxPoint x="810" y="370" />
            </Array>
          </mxGeometry>
        </mxCell>
        <mxCell id="3XYwbMmrLyhnH5qcktHA-50" style="edgeStyle=orthogonalEdgeStyle;rounded=0;orthogonalLoop=1;jettySize=auto;html=1;exitX=0.5;exitY=0;exitDx=0;exitDy=0;entryX=0.5;entryY=1;entryDx=0;entryDy=0;" edge="1" parent="1" source="3XYwbMmrLyhnH5qcktHA-39" target="3XYwbMmrLyhnH5qcktHA-33">
          <mxGeometry relative="1" as="geometry">
            <Array as="points">
              <mxPoint x="940" y="450" />
              <mxPoint x="870" y="450" />
              <mxPoint x="870" y="370" />
              <mxPoint x="810" y="370" />
            </Array>
          </mxGeometry>
        </mxCell>
        <mxCell id="3XYwbMmrLyhnH5qcktHA-37" value="&lt;span style=&quot;border-bottom: 1px dotted&quot;&gt;&lt;b&gt;&lt;u&gt;nombre_menu&lt;/u&gt;&lt;/b&gt;&lt;/span&gt;" style="ellipse;whiteSpace=wrap;html=1;align=center;" vertex="1" parent="1">
          <mxGeometry x="890" y="400" width="100" height="40" as="geometry" />
        </mxCell>
        <mxCell id="3XYwbMmrLyhnH5qcktHA-38" value="&lt;span style=&quot;border-bottom: 1px dotted&quot;&gt;&lt;b&gt;&lt;u&gt;plato_principal&lt;/u&gt;&lt;/b&gt;&lt;/span&gt;" style="ellipse;whiteSpace=wrap;html=1;align=center;" vertex="1" parent="1">
          <mxGeometry x="760" y="460" width="100" height="40" as="geometry" />
        </mxCell>
        <mxCell id="3XYwbMmrLyhnH5qcktHA-39" value="&lt;span style=&quot;border-bottom: 1px dotted&quot;&gt;&lt;b&gt;&lt;u&gt;precio&lt;/u&gt;&lt;/b&gt;&lt;/span&gt;" style="ellipse;whiteSpace=wrap;html=1;align=center;" vertex="1" parent="1">
          <mxGeometry x="890" y="460" width="100" height="40" as="geometry" />
        </mxCell>
        <mxCell id="3XYwbMmrLyhnH5qcktHA-79" value="" style="edgeStyle=orthogonalEdgeStyle;rounded=0;orthogonalLoop=1;jettySize=auto;html=1;" edge="1" parent="1" source="3XYwbMmrLyhnH5qcktHA-51" target="3XYwbMmrLyhnH5qcktHA-78">
          <mxGeometry relative="1" as="geometry" />
        </mxCell>
        <mxCell id="3XYwbMmrLyhnH5qcktHA-51" value="Reservas" style="rounded=1;arcSize=10;whiteSpace=wrap;html=1;align=center;" vertex="1" parent="1">
          <mxGeometry x="440" y="230" width="100" height="40" as="geometry" />
        </mxCell>
        <mxCell id="3XYwbMmrLyhnH5qcktHA-69" style="edgeStyle=orthogonalEdgeStyle;rounded=0;orthogonalLoop=1;jettySize=auto;html=1;" edge="1" parent="1" source="3XYwbMmrLyhnH5qcktHA-52" target="3XYwbMmrLyhnH5qcktHA-51">
          <mxGeometry relative="1" as="geometry">
            <Array as="points">
              <mxPoint x="630" y="160" />
              <mxPoint x="490" y="160" />
            </Array>
          </mxGeometry>
        </mxCell>
        <mxCell id="3XYwbMmrLyhnH5qcktHA-52" value="&lt;span style=&quot;border-bottom: 1px dotted&quot;&gt;&lt;b&gt;&lt;u&gt;email_usuario&lt;/u&gt;&lt;/b&gt;&lt;/span&gt;" style="ellipse;whiteSpace=wrap;html=1;align=center;" vertex="1" parent="1">
          <mxGeometry x="580" y="90" width="100" height="40" as="geometry" />
        </mxCell>
        <mxCell id="3XYwbMmrLyhnH5qcktHA-64" style="edgeStyle=orthogonalEdgeStyle;rounded=0;orthogonalLoop=1;jettySize=auto;html=1;entryX=0.5;entryY=0;entryDx=0;entryDy=0;" edge="1" parent="1" source="3XYwbMmrLyhnH5qcktHA-53" target="3XYwbMmrLyhnH5qcktHA-51">
          <mxGeometry relative="1" as="geometry" />
        </mxCell>
        <mxCell id="3XYwbMmrLyhnH5qcktHA-53" value="&lt;span style=&quot;border-bottom: 1px dotted&quot;&gt;&lt;b&gt;&lt;u&gt;fecha_reserva&lt;/u&gt;&lt;/b&gt;&lt;/span&gt;" style="ellipse;whiteSpace=wrap;html=1;align=center;" vertex="1" parent="1">
          <mxGeometry x="440" y="90" width="100" height="40" as="geometry" />
        </mxCell>
        <mxCell id="3XYwbMmrLyhnH5qcktHA-67" style="edgeStyle=orthogonalEdgeStyle;rounded=0;orthogonalLoop=1;jettySize=auto;html=1;" edge="1" parent="1" source="3XYwbMmrLyhnH5qcktHA-54" target="3XYwbMmrLyhnH5qcktHA-51">
          <mxGeometry relative="1" as="geometry">
            <Array as="points">
              <mxPoint x="340" y="160" />
              <mxPoint x="490" y="160" />
            </Array>
          </mxGeometry>
        </mxCell>
        <mxCell id="3XYwbMmrLyhnH5qcktHA-54" value="&lt;span style=&quot;border-bottom: 1px dotted&quot;&gt;&lt;b&gt;&lt;u&gt;nombre&lt;/u&gt;&lt;/b&gt;&lt;/span&gt;" style="ellipse;whiteSpace=wrap;html=1;align=center;" vertex="1" parent="1">
          <mxGeometry x="290" y="90" width="100" height="40" as="geometry" />
        </mxCell>
        <mxCell id="3XYwbMmrLyhnH5qcktHA-70" style="edgeStyle=orthogonalEdgeStyle;rounded=0;orthogonalLoop=1;jettySize=auto;html=1;entryX=0.5;entryY=0;entryDx=0;entryDy=0;" edge="1" parent="1" source="3XYwbMmrLyhnH5qcktHA-55" target="3XYwbMmrLyhnH5qcktHA-51">
          <mxGeometry relative="1" as="geometry">
            <Array as="points">
              <mxPoint x="690" y="160" />
              <mxPoint x="490" y="160" />
            </Array>
          </mxGeometry>
        </mxCell>
        <mxCell id="3XYwbMmrLyhnH5qcktHA-55" value="&lt;span style=&quot;border-bottom: 1px dotted&quot;&gt;&lt;b&gt;&lt;u&gt;id_menu&lt;/u&gt;&lt;/b&gt;&lt;/span&gt;" style="ellipse;whiteSpace=wrap;html=1;align=center;" vertex="1" parent="1">
          <mxGeometry x="640" y="30" width="100" height="40" as="geometry" />
        </mxCell>
        <mxCell id="3XYwbMmrLyhnH5qcktHA-68" style="edgeStyle=orthogonalEdgeStyle;rounded=0;orthogonalLoop=1;jettySize=auto;html=1;" edge="1" parent="1" source="3XYwbMmrLyhnH5qcktHA-56" target="3XYwbMmrLyhnH5qcktHA-51">
          <mxGeometry relative="1" as="geometry">
            <Array as="points">
              <mxPoint x="550" y="160" />
              <mxPoint x="490" y="160" />
            </Array>
          </mxGeometry>
        </mxCell>
        <mxCell id="3XYwbMmrLyhnH5qcktHA-56" value="&lt;span style=&quot;border-bottom: 1px dotted&quot;&gt;&lt;b&gt;&lt;u&gt;dni_usuario&lt;/u&gt;&lt;/b&gt;&lt;/span&gt;" style="ellipse;whiteSpace=wrap;html=1;align=center;" vertex="1" parent="1">
          <mxGeometry x="500" y="30" width="100" height="40" as="geometry" />
        </mxCell>
        <mxCell id="3XYwbMmrLyhnH5qcktHA-66" style="edgeStyle=orthogonalEdgeStyle;rounded=0;orthogonalLoop=1;jettySize=auto;html=1;entryX=0.5;entryY=0;entryDx=0;entryDy=0;" edge="1" parent="1" source="3XYwbMmrLyhnH5qcktHA-57" target="3XYwbMmrLyhnH5qcktHA-51">
          <mxGeometry relative="1" as="geometry">
            <Array as="points">
              <mxPoint x="410" y="160" />
              <mxPoint x="490" y="160" />
            </Array>
          </mxGeometry>
        </mxCell>
        <mxCell id="3XYwbMmrLyhnH5qcktHA-57" value="&lt;span style=&quot;border-bottom: 1px dotted&quot;&gt;&lt;b&gt;&lt;u&gt;id_usuario&lt;/u&gt;&lt;/b&gt;&lt;/span&gt;" style="ellipse;whiteSpace=wrap;html=1;align=center;" vertex="1" parent="1">
          <mxGeometry x="360" y="30" width="100" height="40" as="geometry" />
        </mxCell>
        <mxCell id="3XYwbMmrLyhnH5qcktHA-65" style="edgeStyle=orthogonalEdgeStyle;rounded=0;orthogonalLoop=1;jettySize=auto;html=1;" edge="1" parent="1" source="3XYwbMmrLyhnH5qcktHA-58" target="3XYwbMmrLyhnH5qcktHA-51">
          <mxGeometry relative="1" as="geometry">
            <Array as="points">
              <mxPoint x="270" y="160" />
              <mxPoint x="490" y="160" />
            </Array>
          </mxGeometry>
        </mxCell>
        <mxCell id="3XYwbMmrLyhnH5qcktHA-58" value="&lt;span style=&quot;border-bottom: 1px dotted&quot;&gt;&lt;b&gt;&lt;u&gt;id&lt;/u&gt;&lt;/b&gt;&lt;/span&gt;" style="ellipse;whiteSpace=wrap;html=1;align=center;" vertex="1" parent="1">
          <mxGeometry x="220" y="30" width="100" height="40" as="geometry" />
        </mxCell>
        <mxCell id="3XYwbMmrLyhnH5qcktHA-74" value="" style="edgeStyle=orthogonalEdgeStyle;rounded=0;orthogonalLoop=1;jettySize=auto;html=1;" edge="1" parent="1" source="3XYwbMmrLyhnH5qcktHA-71" target="3XYwbMmrLyhnH5qcktHA-51">
          <mxGeometry relative="1" as="geometry" />
        </mxCell>
        <mxCell id="3XYwbMmrLyhnH5qcktHA-71" value="Tiene" style="shape=rhombus;perimeter=rhombusPerimeter;whiteSpace=wrap;html=1;align=center;" vertex="1" parent="1">
          <mxGeometry x="310" y="225" width="80" height="50" as="geometry" />
        </mxCell>
        <mxCell id="3XYwbMmrLyhnH5qcktHA-76" value="1" style="text;html=1;align=center;verticalAlign=middle;resizable=0;points=[];autosize=1;strokeColor=none;fillColor=none;" vertex="1" parent="1">
          <mxGeometry x="245" y="228" width="30" height="30" as="geometry" />
        </mxCell>
        <mxCell id="3XYwbMmrLyhnH5qcktHA-77" value="n" style="text;html=1;align=center;verticalAlign=middle;resizable=0;points=[];autosize=1;strokeColor=none;fillColor=none;" vertex="1" parent="1">
          <mxGeometry x="405" y="228" width="30" height="30" as="geometry" />
        </mxCell>
        <mxCell id="3XYwbMmrLyhnH5qcktHA-80" value="" style="edgeStyle=orthogonalEdgeStyle;rounded=0;orthogonalLoop=1;jettySize=auto;html=1;" edge="1" parent="1" source="3XYwbMmrLyhnH5qcktHA-78" target="3XYwbMmrLyhnH5qcktHA-33">
          <mxGeometry relative="1" as="geometry" />
        </mxCell>
        <mxCell id="3XYwbMmrLyhnH5qcktHA-78" value="Tiene" style="shape=rhombus;perimeter=rhombusPerimeter;whiteSpace=wrap;html=1;align=center;" vertex="1" parent="1">
          <mxGeometry x="610" y="225" width="80" height="50" as="geometry" />
        </mxCell>
        <mxCell id="3XYwbMmrLyhnH5qcktHA-81" value="n" style="text;html=1;align=center;verticalAlign=middle;resizable=0;points=[];autosize=1;strokeColor=none;fillColor=none;" vertex="1" parent="1">
          <mxGeometry x="545" y="228" width="30" height="30" as="geometry" />
        </mxCell>
        <mxCell id="3XYwbMmrLyhnH5qcktHA-82" value="n" style="text;html=1;align=center;verticalAlign=middle;resizable=0;points=[];autosize=1;strokeColor=none;fillColor=none;" vertex="1" parent="1">
          <mxGeometry x="730" y="225" width="30" height="30" as="geometry" />
        </mxCell>
        <mxCell id="3XYwbMmrLyhnH5qcktHA-85" style="edgeStyle=orthogonalEdgeStyle;rounded=0;orthogonalLoop=1;jettySize=auto;html=1;" edge="1" parent="1" source="3XYwbMmrLyhnH5qcktHA-83">
          <mxGeometry relative="1" as="geometry">
            <mxPoint x="810" y="270" as="targetPoint" />
          </mxGeometry>
        </mxCell>
        <mxCell id="3XYwbMmrLyhnH5qcktHA-83" value="Tiene" style="shape=rhombus;perimeter=rhombusPerimeter;whiteSpace=wrap;html=1;align=center;" vertex="1" parent="1">
          <mxGeometry x="450" y="315" width="80" height="50" as="geometry" />
        </mxCell>
        <mxCell id="3XYwbMmrLyhnH5qcktHA-86" value="n" style="text;html=1;align=center;verticalAlign=middle;resizable=0;points=[];autosize=1;strokeColor=none;fillColor=none;" vertex="1" parent="1">
          <mxGeometry x="785" y="308" width="30" height="30" as="geometry" />
        </mxCell>
        <mxCell id="3XYwbMmrLyhnH5qcktHA-87" value="1" style="text;html=1;align=center;verticalAlign=middle;resizable=0;points=[];autosize=1;strokeColor=none;fillColor=none;" vertex="1" parent="1">
          <mxGeometry x="205" y="315" width="30" height="30" as="geometry" />
        </mxCell>
      </root>
    </mxGraphModel>
  </diagram>
</mxfile>
